<?xml version="1.0" encoding="utf-8"?>
<!-- Generator: Adobe Illustrator 19.1.0, SVG Export Plug-In . SVG Version: 6.00 Build 0)  -->
<svg version="1.1" id="Layer_1" xmlns="http://www.w3.org/2000/svg" xmlns:xlink="http://www.w3.org/1999/xlink" x="0px" y="0px"
	 viewBox="0 0 198 144" enable-background="new 0 0 198 144" xml:space="preserve">
<g>
	<path fill="#424765" d="M37.453,29.676V7.85h5.303v17.233h8.447v4.593H37.453z"/>
	<path fill="#424765" d="M69.999,29.676l-1.695-4.285h-8.447l-1.603,4.285h-5.734L61.675,7.85h5.117l9.063,21.826H69.999z
		 M64.141,13.677l-2.774,7.491h5.487L64.141,13.677z"/>
	<path fill="#424765" d="M90.438,29.676L82.33,19.627h-0.062v10.049H77.12V7.85h5.148v8.879h0.093l7.8-8.879h6.597l-9.402,10.05
		l9.958,11.776H90.438z"/>
	<path fill="#424765" d="M99.236,29.676V7.85h14.675v4.439h-9.588v4.131h9.063v4.224h-9.063v4.531h10.143v4.501H99.236z"/>
</g>
<g>
	<path fill="#424765" d="M44.678,44.351c-0.461-0.587-1.063-1.054-1.807-1.399c-0.744-0.346-1.462-0.519-2.153-0.519
		c-0.357,0-0.719,0.031-1.085,0.095c-0.367,0.062-0.697,0.184-0.99,0.361c-0.294,0.179-0.54,0.408-0.738,0.691
		c-0.199,0.283-0.299,0.645-0.299,1.085c0,0.377,0.078,0.691,0.235,0.942c0.157,0.252,0.388,0.472,0.691,0.66
		s0.665,0.361,1.085,0.519c0.419,0.157,0.891,0.32,1.415,0.487c0.754,0.252,1.54,0.53,2.357,0.833
		c0.817,0.305,1.561,0.708,2.231,1.211s1.226,1.126,1.666,1.87s0.66,1.671,0.66,2.782c0,1.278-0.235,2.384-0.707,3.316
		s-1.105,1.702-1.902,2.31c-0.796,0.608-1.708,1.059-2.734,1.353c-1.027,0.293-2.086,0.439-3.175,0.439
		c-1.593,0-3.133-0.278-4.621-0.833s-2.725-1.346-3.709-2.373l3.521-3.584c0.545,0.671,1.263,1.231,2.153,1.682
		c0.891,0.451,1.776,0.677,2.656,0.677c0.397,0,0.786-0.042,1.163-0.126s0.707-0.221,0.99-0.409s0.508-0.439,0.676-0.754
		c0.167-0.314,0.251-0.691,0.251-1.132c0-0.419-0.104-0.775-0.314-1.068c-0.209-0.294-0.508-0.561-0.896-0.802
		s-0.87-0.461-1.446-0.66s-1.23-0.414-1.964-0.645c-0.713-0.23-1.41-0.503-2.091-0.817c-0.682-0.314-1.289-0.718-1.823-1.21
		s-0.964-1.09-1.289-1.792s-0.487-1.556-0.487-2.562c0-1.236,0.252-2.295,0.755-3.176c0.503-0.88,1.163-1.603,1.98-2.169
		c0.817-0.565,1.739-0.979,2.766-1.241c1.027-0.262,2.064-0.393,3.112-0.393c1.258,0,2.541,0.23,3.851,0.691
		s2.457,1.143,3.442,2.043L44.678,44.351z"/>
	<path fill="#424765" d="M69.49,56.091c-0.451,1.101-1.096,2.044-1.934,2.829c-0.838,0.786-1.85,1.399-3.033,1.839
		c-1.184,0.44-2.499,0.66-3.945,0.66c-1.467,0-2.787-0.22-3.96-0.66c-1.174-0.439-2.169-1.053-2.986-1.839
		c-0.817-0.785-1.446-1.729-1.887-2.829c-0.439-1.1-0.66-2.32-0.66-3.662V38.567h5.345V51.99c0,0.607,0.078,1.184,0.235,1.729
		s0.397,1.032,0.723,1.462s0.755,0.77,1.289,1.021c0.534,0.251,1.179,0.377,1.934,0.377c0.754,0,1.398-0.126,1.933-0.377
		c0.535-0.252,0.97-0.592,1.305-1.021c0.335-0.43,0.576-0.917,0.723-1.462s0.221-1.121,0.221-1.729V38.567h5.375v13.862
		C70.165,53.771,69.94,54.992,69.49,56.091z"/>
	<path fill="#424765" d="M91.069,45.42c0,1.3-0.241,2.395-0.723,3.285c-0.482,0.891-1.132,1.608-1.949,2.153
		s-1.76,0.943-2.829,1.194c-1.068,0.252-2.18,0.377-3.332,0.377h-2.672v8.394h-5.375V38.567h8.173c1.215,0,2.353,0.121,3.41,0.361
		c1.059,0.241,1.98,0.629,2.767,1.163s1.403,1.237,1.854,2.106C90.843,43.068,91.069,44.142,91.069,45.42z M85.694,45.451
		c0-0.523-0.105-0.953-0.314-1.288c-0.21-0.335-0.492-0.598-0.849-0.786s-0.76-0.314-1.21-0.377
		c-0.451-0.063-0.917-0.095-1.399-0.095h-2.357v5.25h2.264c0.503,0,0.984-0.042,1.445-0.126s0.875-0.23,1.242-0.44
		c0.366-0.209,0.654-0.487,0.864-0.833C85.588,46.41,85.694,45.975,85.694,45.451z"/>
	<path fill="#424765" d="M93.741,60.823V38.567h14.963v4.526h-9.776v4.213h9.241v4.306h-9.241v4.621h10.342v4.59H93.741z"/>
	<path fill="#424765" d="M124.92,60.823l-4.832-8.833h-1.832v8.833h-5.249V38.567h8.487c1.068,0,2.11,0.11,3.128,0.33
		c1.016,0.22,1.928,0.593,2.734,1.116c0.807,0.523,1.451,1.216,1.934,2.074c0.481,0.859,0.723,1.929,0.723,3.206
		c0,1.51-0.408,2.777-1.226,3.804c-0.817,1.027-1.949,1.761-3.396,2.201l5.815,9.524H124.92z M124.701,45.388
		c0-0.523-0.111-0.948-0.332-1.273c-0.221-0.324-0.505-0.576-0.853-0.754s-0.737-0.299-1.169-0.361
		c-0.432-0.063-0.848-0.095-1.248-0.095h-2.874v5.187h2.559c0.442,0,0.895-0.036,1.358-0.109c0.463-0.073,0.884-0.205,1.264-0.394
		c0.379-0.188,0.689-0.461,0.932-0.817C124.579,46.416,124.701,45.954,124.701,45.388z"/>
	<path fill="#424765" d="M133.738,60.823V38.567h5.406v22.256H133.738z"/>
	<path fill="#424765" d="M182.224,60.823l-4.832-8.833h-1.832v8.833h-5.249V38.567h8.487c1.068,0,2.11,0.11,3.128,0.33
		c1.016,0.22,1.928,0.593,2.734,1.116s1.451,1.216,1.934,2.074c0.481,0.859,0.723,1.929,0.723,3.206c0,1.51-0.408,2.777-1.226,3.804
		c-0.817,1.027-1.949,1.761-3.396,2.201l5.815,9.524H182.224z M182.004,45.388c0-0.523-0.111-0.948-0.332-1.273
		c-0.221-0.324-0.505-0.576-0.853-0.754s-0.737-0.299-1.169-0.361c-0.432-0.063-0.848-0.095-1.248-0.095h-2.874v5.187h2.559
		c0.442,0,0.895-0.036,1.358-0.109c0.463-0.073,0.884-0.205,1.264-0.394c0.379-0.188,0.689-0.461,0.932-0.817
		C181.883,46.416,182.004,45.954,182.004,45.388z"/>
</g>
<g>
	<path fill="#424765" d="M27.004,10.934l-0.853,2.001l-8.096,1.261l-0.01,0.024l6.415,2.679l-0.644,1.509l-8.57-3.578l0.817-1.917
		l8.338-1.259l0.011-0.024l-6.621-2.765l0.643-1.509L27.004,10.934z"/>
	<path fill="#424765" d="M22.361,23.094l-0.395,1.362L11.92,25.729l0.522-1.799l2.285-0.244l1.113-3.836l-1.814-1.381l0.51-1.762
		L22.361,23.094z M16.25,23.523l4.032-0.329l-3.234-2.42L16.25,23.523z"/>
	<path fill="#424765" d="M19.134,30.083l0.524-2.772l1.42,0.263l-1.353,7.155l-1.42-0.263l0.524-2.772l-7.723-1.431l0.305-1.609
		L19.134,30.083z"/>
	<path fill="#424765" d="M19.612,36.189l-0.185,1.628l-9.244-1.027l0.185-1.628L19.612,36.189z"/>
	<path fill="#424765" d="M14.521,39.144c0.744,0.018,1.413,0.157,2.007,0.418c0.593,0.261,1.095,0.615,1.505,1.062
		s0.721,0.975,0.935,1.582c0.213,0.607,0.311,1.267,0.294,1.978c-0.017,0.719-0.147,1.379-0.389,1.98
		c-0.243,0.601-0.579,1.117-1.01,1.55c-0.431,0.432-0.949,0.764-1.555,0.997c-0.606,0.232-1.281,0.341-2.025,0.323
		c-0.726-0.018-1.387-0.156-1.981-0.418C11.708,48.356,11.2,48,10.778,47.547c-0.422-0.452-0.747-0.984-0.974-1.596
		c-0.226-0.612-0.331-1.278-0.313-1.997c0.017-0.711,0.153-1.364,0.409-1.961c0.255-0.597,0.604-1.108,1.048-1.535
		c0.444-0.428,0.969-0.758,1.575-0.991C13.128,39.235,13.794,39.128,14.521,39.144z M14.479,40.924
		c-0.499-0.012-0.959,0.054-1.379,0.195s-0.786,0.35-1.098,0.624c-0.314,0.274-0.561,0.603-0.74,0.984s-0.275,0.807-0.287,1.274
		c-0.011,0.468,0.064,0.898,0.226,1.292c0.161,0.395,0.392,0.735,0.691,1.024c0.3,0.289,0.656,0.514,1.068,0.675
		c0.413,0.162,0.868,0.248,1.368,0.26c0.482,0.012,0.93-0.054,1.345-0.195c0.415-0.143,0.779-0.349,1.093-0.618
		c0.313-0.271,0.562-0.598,0.746-0.983c0.185-0.387,0.282-0.817,0.294-1.294c0.011-0.477-0.066-0.91-0.232-1.299
		c-0.166-0.391-0.399-0.728-0.699-1.012c-0.3-0.284-0.653-0.508-1.062-0.669C15.404,41.022,14.959,40.936,14.479,40.924z"/>
	<path fill="#424765" d="M19.009,50.395l0.22,2.16l-6.492,4.949l0.002,0.025l6.928-0.693l0.167,1.63l-9.254,0.927l-0.212-2.07
		l6.706-5.062l-0.003-0.025l-7.15,0.716l-0.166-1.63L19.009,50.395z"/>
	<path fill="#424765" d="M20.762,62.978l0.308,1.384l-8.225,5.848l-0.406-1.828l1.892-1.29l-0.866-3.898l-2.259-0.36l-0.398-1.79
		L20.762,62.978z M15.593,66.231l3.388-2.188l-4.009-0.605L15.593,66.231z"/>
	<path fill="#424765" d="M22.302,69.144l0.513,1.557l-7.443,2.404l1.227,3.72L15.2,77.277L13.459,72L22.302,69.144z"/>
	<path fill="#424765" d="M25.83,78.755l2.682,5.488l-1.301,0.623l-1.962-4.015l-2.129,1.02l1.859,3.803l-1.254,0.601l-1.859-3.804
		l-2.365,1.132l2.065,4.226l-1.324,0.634l-2.786-5.699L25.83,78.755z"/>
	<path fill="#424765" d="M30.249,90.903c0.104-0.266,0.137-0.572,0.103-0.922c-0.036-0.349-0.137-0.66-0.305-0.935
		c-0.101-0.163-0.221-0.313-0.362-0.451c-0.142-0.139-0.296-0.248-0.464-0.33c-0.169-0.081-0.347-0.123-0.539-0.125
		c-0.19-0.001-0.383,0.057-0.577,0.173c-0.18,0.108-0.311,0.238-0.393,0.389c-0.081,0.15-0.127,0.317-0.137,0.501
		c-0.011,0.184,0.008,0.389,0.054,0.614c0.046,0.226,0.105,0.47,0.174,0.732c0.072,0.301,0.139,0.618,0.2,0.952
		c0.061,0.333,0.075,0.664,0.042,0.994c-0.034,0.329-0.137,0.645-0.31,0.946c-0.174,0.303-0.455,0.57-0.844,0.805
		c-0.426,0.257-0.847,0.403-1.26,0.438c-0.414,0.036-0.805-0.013-1.173-0.146c-0.369-0.133-0.713-0.342-1.031-0.627
		s-0.596-0.62-0.833-1.005c-0.314-0.511-0.526-1.068-0.636-1.672c-0.11-0.604-0.073-1.174,0.111-1.71l1.557,0.433
		c-0.151,0.354-0.206,0.74-0.166,1.157c0.041,0.416,0.157,0.78,0.348,1.091c0.1,0.163,0.223,0.317,0.369,0.463
		c0.145,0.146,0.309,0.258,0.491,0.336c0.182,0.079,0.371,0.116,0.569,0.114c0.198-0.003,0.406-0.069,0.623-0.2
		c0.21-0.126,0.354-0.279,0.433-0.458c0.08-0.18,0.119-0.382,0.12-0.605c0.001-0.224-0.03-0.469-0.091-0.736
		c-0.062-0.267-0.126-0.548-0.194-0.842c-0.071-0.282-0.126-0.572-0.168-0.873c-0.04-0.3-0.034-0.596,0.023-0.889
		c0.056-0.292,0.174-0.573,0.351-0.842c0.178-0.27,0.454-0.517,0.828-0.742c0.405-0.243,0.803-0.369,1.197-0.378
		c0.395-0.009,0.77,0.063,1.127,0.22c0.357,0.155,0.688,0.377,0.993,0.665c0.306,0.288,0.567,0.609,0.786,0.965
		c0.246,0.4,0.424,0.849,0.535,1.345c0.11,0.497,0.116,0.982,0.019,1.457L30.249,90.903z"/>
	<path fill="#424765" d="M33.453,94.633l-1.699-2.265l1.16-0.853l4.387,5.845l-1.161,0.853l-1.699-2.266l-6.307,4.636l-0.987-1.315
		L33.453,94.633z"/>
	<path fill="#424765" d="M38.77,107.647c-0.413,0.375-0.851,0.644-1.313,0.806c-0.463,0.161-0.923,0.226-1.381,0.194
		c-0.457-0.031-0.903-0.156-1.336-0.373c-0.434-0.218-0.832-0.521-1.193-0.911c-0.361-0.39-0.634-0.807-0.815-1.253
		c-0.183-0.446-0.271-0.898-0.267-1.354c0.004-0.457,0.109-0.905,0.314-1.344c0.204-0.439,0.513-0.847,0.926-1.222l4.336-3.939
		l1.119,1.206l-4.286,3.896c-0.2,0.182-0.375,0.388-0.524,0.617c-0.149,0.23-0.247,0.475-0.292,0.733
		c-0.044,0.259-0.026,0.529,0.058,0.812c0.084,0.283,0.26,0.568,0.526,0.855s0.539,0.483,0.816,0.591
		c0.277,0.106,0.549,0.148,0.813,0.126c0.264-0.022,0.518-0.098,0.763-0.226c0.244-0.128,0.466-0.282,0.666-0.464l4.286-3.896
		l1.119,1.206L38.77,107.647z"/>
	<path fill="#424765" d="M45.78,106.116l1.067,0.945l-3.219,9.502l-1.409-1.248l0.774-2.142l-3.005-2.662l-2.046,1.014l-1.38-1.223
		L45.78,106.116z M43.508,111.746l1.457-3.734l-3.61,1.826L43.508,111.746z"/>
	<path fill="#424765" d="M50.196,109.892l2.61,1.885c0.354,0.255,0.67,0.539,0.948,0.854c0.278,0.313,0.486,0.647,0.62,1.002
		s0.179,0.724,0.133,1.109c-0.046,0.386-0.213,0.774-0.502,1.167c-0.398,0.539-0.875,0.867-1.433,0.984
		c-0.559,0.117-1.147,0.044-1.765-0.22l-0.425,4.746l-1.614-1.165l0.582-4.407l-0.977-0.704l-2.322,3.15l-1.337-0.965
		L50.196,109.892z M50.265,114.85c0.191,0.138,0.393,0.262,0.604,0.371c0.212,0.11,0.422,0.182,0.632,0.215
		c0.208,0.032,0.415,0.013,0.62-0.06c0.205-0.071,0.39-0.22,0.556-0.444c0.15-0.203,0.226-0.402,0.23-0.598
		c0.003-0.196-0.038-0.384-0.122-0.563c-0.085-0.179-0.207-0.348-0.367-0.506c-0.16-0.158-0.324-0.299-0.494-0.421l-1.21-0.873
		l-1.541,2.09L50.265,114.85z"/>
	<path fill="#424765" d="M57.09,114.662l1.406,0.864l-4.905,7.82l-1.406-0.863L57.09,114.662z"/>
	<path fill="#424765" d="M60.309,116.695l1.957,0.98l0.71,8.079l0.024,0.012l3.146-6.146l1.476,0.74l-4.202,8.211l-1.875-0.939
		l-0.692-8.317l-0.023-0.012l-3.247,6.344l-1.477-0.74L60.309,116.695z"/>
	<path fill="#424765" d="M69.521,121.116l5.774,2.13l-0.505,1.34l-4.222-1.558l-0.826,2.192l4.001,1.476l-0.487,1.292l-4.001-1.476
		l-0.918,2.436l4.444,1.64l-0.513,1.364l-5.996-2.211L69.521,121.116z"/>
	<path fill="#424765" d="M80.554,124.761l3.16,0.673c0.427,0.091,0.833,0.224,1.217,0.398c0.383,0.175,0.709,0.396,0.977,0.667
		c0.267,0.27,0.46,0.59,0.576,0.961c0.116,0.37,0.123,0.793,0.021,1.268c-0.142,0.652-0.444,1.144-0.906,1.476
		s-1.029,0.501-1.703,0.508l1.56,4.508l-1.953-0.416l-1.277-4.261l-1.181-0.252l-0.829,3.812l-1.619-0.345L80.554,124.761z
		 M82.652,129.263c0.231,0.05,0.466,0.082,0.705,0.097c0.239,0.016,0.46-0.003,0.664-0.058c0.204-0.054,0.386-0.155,0.543-0.303
		c0.158-0.148,0.266-0.358,0.326-0.629c0.053-0.246,0.041-0.459-0.036-0.64c-0.078-0.181-0.191-0.335-0.342-0.465
		s-0.333-0.235-0.543-0.315c-0.211-0.08-0.419-0.143-0.625-0.187l-1.465-0.312l-0.55,2.529L82.652,129.263z"/>
	<path fill="#424765" d="M88.701,126.382l6.123,0.681l-0.161,1.421l-4.479-0.498l-0.264,2.325l4.243,0.472l-0.155,1.37l-4.244-0.472
		l-0.293,2.583l4.714,0.524l-0.165,1.446l-6.358-0.706L88.701,126.382z"/>
	<path fill="#424765" d="M101.46,129.169c-0.172-0.229-0.415-0.421-0.732-0.578c-0.318-0.157-0.638-0.238-0.962-0.244
		c-0.192-0.003-0.386,0.018-0.578,0.062c-0.194,0.044-0.37,0.115-0.53,0.212c-0.159,0.097-0.29,0.225-0.394,0.383
		c-0.104,0.159-0.157,0.352-0.161,0.576c-0.004,0.208,0.037,0.387,0.122,0.535c0.085,0.149,0.202,0.276,0.354,0.383
		c0.151,0.107,0.336,0.201,0.554,0.283c0.217,0.081,0.457,0.163,0.718,0.246c0.296,0.1,0.603,0.214,0.921,0.34
		c0.317,0.127,0.608,0.292,0.871,0.496s0.479,0.459,0.643,0.765c0.166,0.307,0.245,0.685,0.237,1.136
		c-0.008,0.493-0.108,0.923-0.298,1.288c-0.19,0.365-0.44,0.667-0.751,0.904c-0.311,0.237-0.673,0.413-1.087,0.527
		c-0.414,0.114-0.849,0.168-1.304,0.16c-0.604-0.01-1.193-0.13-1.768-0.361c-0.574-0.23-1.041-0.565-1.401-1.005l1.2-1.072
		c0.223,0.316,0.523,0.568,0.901,0.757c0.377,0.188,0.75,0.285,1.118,0.292c0.192,0.003,0.39-0.018,0.592-0.062
		c0.202-0.045,0.385-0.122,0.55-0.231c0.164-0.11,0.297-0.249,0.401-0.416c0.104-0.167,0.158-0.377,0.162-0.628
		c0.005-0.242-0.049-0.445-0.16-0.607c-0.112-0.162-0.263-0.304-0.453-0.424c-0.19-0.12-0.416-0.226-0.678-0.316
		c-0.261-0.091-0.535-0.187-0.822-0.287c-0.279-0.092-0.558-0.2-0.836-0.326c-0.278-0.126-0.527-0.29-0.747-0.494
		c-0.22-0.202-0.398-0.45-0.532-0.743c-0.135-0.293-0.199-0.655-0.191-1.089c0.008-0.468,0.114-0.869,0.316-1.204
		c0.203-0.334,0.466-0.609,0.79-0.825c0.324-0.216,0.69-0.374,1.098-0.476c0.41-0.102,0.824-0.148,1.245-0.142
		c0.473,0.008,0.951,0.099,1.434,0.271c0.484,0.173,0.902,0.427,1.255,0.762L101.46,129.169z"/>
	<path fill="#424765" d="M104.327,127.208l6.144-0.467l0.111,1.426l-4.493,0.342l0.182,2.333l4.258-0.324l0.107,1.374l-4.258,0.324
		l0.201,2.592l4.729-0.359l0.113,1.451l-6.38,0.485L104.327,127.208z"/>
	<path fill="#424765" d="M115.001,126.036l1.408-0.254l5.607,8.346l-1.861,0.335l-1.234-1.918l-3.968,0.714l-0.446,2.221
		l-1.823,0.328L115.001,126.036z M118.099,131.265l-2.086-3.43l-0.758,3.941L118.099,131.265z"/>
	<path fill="#424765" d="M120.64,124.923l3.106-0.885c0.421-0.12,0.842-0.192,1.263-0.218c0.421-0.025,0.814,0.019,1.179,0.131
		c0.365,0.112,0.688,0.305,0.968,0.577c0.279,0.271,0.487,0.641,0.623,1.107c0.187,0.642,0.155,1.216-0.094,1.725
		c-0.249,0.508-0.668,0.923-1.258,1.244l3.527,3.243l-1.919,0.547l-3.161-3.159l-1.162,0.331l1.091,3.748l-1.591,0.453
		L120.64,124.923z M124.64,127.91c0.227-0.064,0.449-0.146,0.667-0.244c0.217-0.098,0.404-0.218,0.558-0.361
		s0.265-0.316,0.334-0.521c0.068-0.204,0.064-0.439-0.014-0.706c-0.07-0.241-0.183-0.424-0.337-0.547
		c-0.154-0.123-0.329-0.206-0.524-0.25c-0.195-0.043-0.405-0.051-0.629-0.023c-0.224,0.028-0.437,0.07-0.64,0.128l-1.439,0.41
		l0.722,2.485L124.64,127.91z"/>
	<path fill="#424765" d="M135.378,122.167c-0.352-0.214-0.74-0.318-1.163-0.312c-0.423,0.005-0.809,0.078-1.159,0.218
		c-0.446,0.179-0.819,0.422-1.119,0.729c-0.299,0.307-0.524,0.654-0.673,1.041s-0.217,0.797-0.204,1.231
		c0.012,0.435,0.109,0.873,0.289,1.314c0.19,0.466,0.433,0.864,0.729,1.194c0.295,0.331,0.628,0.583,0.997,0.758
		s0.764,0.268,1.183,0.277s0.853-0.075,1.3-0.254c0.463-0.186,0.836-0.439,1.119-0.764s0.474-0.678,0.571-1.063l1.58,0.363
		c-0.189,0.627-0.504,1.182-0.95,1.663c-0.445,0.482-1.037,0.871-1.776,1.167c-0.673,0.271-1.337,0.407-1.993,0.412
		c-0.654,0.005-1.266-0.109-1.835-0.345s-1.079-0.583-1.531-1.042c-0.453-0.459-0.815-1.022-1.088-1.689
		c-0.279-0.683-0.412-1.348-0.398-1.993c0.015-0.646,0.152-1.246,0.413-1.799c0.261-0.554,0.633-1.048,1.115-1.484
		s1.057-0.788,1.723-1.055c0.276-0.11,0.575-0.199,0.897-0.268c0.322-0.068,0.643-0.104,0.963-0.105
		c0.32-0.002,0.635,0.028,0.944,0.092c0.309,0.063,0.595,0.173,0.858,0.33L135.378,122.167z"/>
	<path fill="#424765" d="M136.792,119.16l1.453-0.785l1.802,3.262l3.816-2.063l-1.803-3.263l1.453-0.786l4.462,8.076l-1.453,0.786
		l-1.979-3.582l-3.815,2.064l1.979,3.581l-1.453,0.786L136.792,119.16z"/>
	<path fill="#424765" d="M148.2,112.442l2.567-1.944c0.347-0.263,0.713-0.482,1.095-0.657c0.383-0.176,0.765-0.277,1.147-0.304
		c0.381-0.027,0.752,0.035,1.113,0.188c0.36,0.152,0.69,0.422,0.988,0.807c0.411,0.53,0.593,1.076,0.549,1.64
		c-0.044,0.562-0.282,1.101-0.714,1.612l4.48,1.748l-1.586,1.201l-4.107-1.801l-0.959,0.727l2.395,3.097l-1.315,0.996L148.2,112.442
		z M153.025,113.781c0.188-0.143,0.365-0.298,0.531-0.468c0.167-0.17,0.296-0.35,0.387-0.538c0.091-0.189,0.13-0.391,0.118-0.606
		c-0.012-0.214-0.103-0.432-0.273-0.652c-0.154-0.199-0.326-0.328-0.515-0.388c-0.189-0.059-0.382-0.073-0.579-0.043
		c-0.197,0.029-0.396,0.098-0.594,0.204c-0.199,0.107-0.382,0.224-0.549,0.35l-1.189,0.901l1.589,2.054L153.025,113.781z"/>
	<path fill="#424765" d="M154.496,107.559l4.513-4.151l0.984,1.048l-3.301,3.035l1.611,1.714l3.127-2.876l0.948,1.009l-3.128,2.877
		l1.789,1.904l3.474-3.195l1.002,1.066l-4.686,4.311L154.496,107.559z"/>
	<path fill="#424765" d="M164.795,99.977c-0.286-0.021-0.593,0.036-0.921,0.17c-0.327,0.136-0.599,0.322-0.814,0.562
		c-0.129,0.142-0.239,0.3-0.332,0.474c-0.093,0.174-0.154,0.353-0.184,0.535c-0.031,0.183-0.019,0.364,0.036,0.546
		c0.053,0.182,0.165,0.347,0.335,0.497c0.157,0.139,0.32,0.225,0.49,0.258c0.169,0.034,0.344,0.029,0.525-0.015
		c0.18-0.044,0.373-0.121,0.577-0.23s0.424-0.235,0.658-0.377c0.27-0.156,0.558-0.312,0.862-0.467
		c0.305-0.154,0.621-0.264,0.949-0.328c0.329-0.064,0.663-0.059,1.006,0.018s0.684,0.265,1.023,0.564
		c0.372,0.33,0.636,0.685,0.791,1.066c0.155,0.381,0.221,0.766,0.2,1.153c-0.022,0.388-0.124,0.774-0.307,1.158
		c-0.184,0.385-0.426,0.745-0.73,1.081c-0.403,0.446-0.879,0.809-1.431,1.088c-0.552,0.278-1.114,0.409-1.686,0.392l-0.035-1.6
		c0.387,0.04,0.776-0.02,1.167-0.18c0.392-0.16,0.71-0.375,0.954-0.646c0.128-0.143,0.242-0.304,0.34-0.484
		c0.099-0.18,0.159-0.367,0.183-0.562c0.023-0.194,0.004-0.385-0.056-0.572c-0.06-0.187-0.185-0.363-0.374-0.531
		c-0.183-0.162-0.373-0.254-0.569-0.277c-0.196-0.022-0.404-0.002-0.62,0.062s-0.445,0.164-0.686,0.3
		c-0.24,0.137-0.492,0.279-0.757,0.429c-0.252,0.149-0.517,0.287-0.795,0.412c-0.278,0.127-0.566,0.205-0.866,0.237
		s-0.605,0.003-0.917-0.088c-0.313-0.09-0.632-0.279-0.958-0.568c-0.352-0.312-0.59-0.653-0.714-1.023
		c-0.123-0.371-0.162-0.747-0.115-1.131c0.046-0.383,0.165-0.761,0.354-1.134c0.19-0.372,0.425-0.714,0.706-1.023
		c0.315-0.35,0.697-0.648,1.145-0.897c0.448-0.248,0.916-0.396,1.403-0.441L164.795,99.977z"/>
	<path fill="#424765" d="M165.037,96.713l3.665-4.9l1.162,0.851l-2.681,3.584l1.9,1.393l2.541-3.396l1.119,0.82l-2.54,3.396
		l2.111,1.547l2.823-3.771l1.182,0.866l-3.807,5.088L165.037,96.713z"/>
	<path fill="#424765" d="M169.68,90.356l1.66-2.744c0.225-0.372,0.482-0.709,0.773-1.013c0.29-0.303,0.607-0.536,0.951-0.701
		c0.345-0.164,0.714-0.241,1.105-0.231s0.798,0.14,1.22,0.389c0.578,0.343,0.952,0.783,1.121,1.322
		c0.169,0.54,0.149,1.126-0.061,1.76l4.815-0.013l-1.025,1.695l-4.489-0.173l-0.621,1.026l3.382,2.003l-0.85,1.405L169.68,90.356z
		 M174.664,89.838c0.121-0.201,0.228-0.411,0.319-0.63c0.092-0.218,0.144-0.432,0.158-0.641c0.014-0.209-0.025-0.411-0.115-0.606
		s-0.257-0.364-0.497-0.507c-0.218-0.129-0.425-0.186-0.624-0.172c-0.197,0.015-0.382,0.071-0.555,0.171
		c-0.173,0.101-0.332,0.236-0.476,0.408c-0.145,0.172-0.271,0.347-0.379,0.525l-0.77,1.271l2.244,1.328L174.664,89.838z"/>
	<path fill="#424765" d="M173.383,84.268l0.781-1.662l7.573,0.689l0.023-0.047l-5.401-5.31l0.754-1.604l6.86,7.229l-0.603,1.285
		L173.383,84.268z"/>
	<path fill="#424765" d="M177.449,75.307l2.001-5.767l1.367,0.465l-1.464,4.217l2.236,0.761l1.388-3.996l1.317,0.448l-1.388,3.995
		l2.485,0.845l1.542-4.438l1.392,0.474l-2.079,5.987L177.449,75.307z"/>
</g>
<path fill="#70758B" d="M123.52,8.466c0,0,2.271,4.648,8.422,6.64c6.151,1.992,9.368,5.692,11.072,8.443
	c1.704,2.751,2.082,3.13,3.785,1.233c1.703-1.897,3.028-4.458,7.192-5.028c4.164-0.569,8.612,1.233,13.627-0.949
	c5.016-2.182,5.773-2.182,5.773-2.182s-3.407,6.071-7.854,6.545c-4.448,0.474-12.208-0.379-14.384,1.897
	c-2.177,2.277-0.662,3.036-3.501,3.51c-2.839,0.474-7.76,0.949-8.138,0.095c-0.378-0.854-3.501-2.846-5.867-3.51
	c-2.366-0.664,0.095-1.328,3.217-0.949c3.123,0.379,2.65-0.759,0.284-2.371c-2.366-1.613-7.192-2.182-9.747-4.553
	C124.845,14.916,123.52,8.466,123.52,8.466z"/>
<path fill="#FFD046" d="M165.949,44.775c-0.608-1.435-1.452-2.656-2.531-3.662s-2.362-1.78-3.851-2.326
	c-1.488-0.544-3.102-0.817-4.841-0.817s-3.348,0.273-4.825,0.817c-1.478,0.546-2.756,1.32-3.835,2.326s-1.923,2.228-2.53,3.662
	c-0.608,1.436-0.911,3.045-0.911,4.825c0,1.761,0.303,3.369,0.911,4.825c0.607,1.457,1.451,2.704,2.53,3.741
	s2.357,1.839,3.835,2.404c1.478,0.566,3.086,0.849,4.825,0.849s3.353-0.282,4.841-0.849c1.488-0.565,2.771-1.367,3.851-2.404
	s1.923-2.284,2.531-3.741c0.607-1.456,0.911-3.064,0.911-4.825C166.86,47.82,166.556,46.211,165.949,44.775z"/>
<g>
	<path fill="#DCAD5F" d="M42.879,91.809c-0.397-0.499-0.798-0.995-1.183-1.505C42.084,90.81,42.477,91.313,42.879,91.809z"/>
	<path fill="none" d="M41.696,90.304c-0.084-0.11-0.17-0.219-0.254-0.329C41.525,90.086,41.612,90.193,41.696,90.304z"/>
	<path fill="#DCAD5F" d="M58.178,106.095c13.353-0.763,26.174-2.702,13.467-7.3c-4.878-1.765-11.452-3.407-11.827-6.366
		c-0.775-6.122,47.183-6.276,47.183-11.522c0-4.28-14.385-6.105-23.193-6.822H80.1c0.559,0.958,0.169,2.109,0.083,2.334
		l-0.252,0.653h-46.2c2.141,4.573,4.722,8.897,7.711,12.903c0.084,0.11,0.169,0.219,0.254,0.329c0.385,0.51,0.786,1.006,1.183,1.505
		C47.282,97.254,52.431,102.072,58.178,106.095z"/>
	<path fill="#424765" d="M79.931,77.071l0.252-0.653c0.086-0.226,0.477-1.376-0.083-2.334c-0.011-0.018-0.016-0.038-0.028-0.056
		c-0.247-0.392-0.747-0.877-1.727-0.957l-0.034-0.002c-0.325-0.015-27.858-1.32-47.006-1.777c0.725,1.969,1.542,3.893,2.426,5.779
		H79.931z"/>
</g>
<path fill="#4BAEC8" d="M162.155,77.071c-0.531,0.021-2.199,0.097-2.911,0c-1.019-0.139-2.215-0.608-2.024-2.081
	c0.069-0.529-0.432-0.95-0.936-0.778c-2.519,0.859-8.084,2.604-12.328,2.859c-0.34,0.02-1.623,0.097-2.335,0
	c-1.009-0.138-2.193-0.6-2.028-2.042c0.062-0.539-0.449-0.962-0.957-0.771c-1.77,0.666-4.981,1.85-7.94,2.813h-4.032l-0.252-0.653
	c-0.086-0.226-0.476-1.376,0.083-2.334h-23.781c-1.667,0.051-2.79,0.136-2.765,0.277c0.085,0.482,17.63,2.421,21.008,4.886
	c3.776,2.756-1.168,5.247-3.911,5.849c-12.118,2.661-62.244,6.668-31.872,12.198c15.515,2.825,9.496,13.619-3.094,19.841
	c6.022,1.567,12.337,2.409,18.849,2.409c24.692,0,46.573-11.999,60.157-30.476c0.456-0.63,0.917-1.257,1.353-1.902
	c0.01-0.015,0.021-0.03,0.031-0.045c1.614-2.39,3.074-4.89,4.406-7.467c0.441-0.853,0.87-1.712,1.278-2.584
	c0.083-0.178,0.162-0.36,0.244-0.539C166.354,76.777,164.138,76.992,162.155,77.071z"/>
<g>
	<rect x="151.762" y="47.624" fill="none" width="0.663" height="2.432"/>
	<rect x="157.172" y="47.624" fill="none" width="0.68" height="2.432"/>
	<rect x="150.441" y="47.624" fill="none" width="0.664" height="2.432"/>
	<rect x="158.508" y="47.624" fill="none" width="0.664" height="2.432"/>
	<path fill="#424765" d="M163.341,71.533v-2.531h-1.727V59.52l-0.001,0l-3.101-2.11v-6.875h1.167v-0.009v-0.47v-2.432v-0.441v-0.039
		h-2.508v-1.373h0.295v-0.561h-0.217l-2.326-1.834c0.174-0.054,0.302-0.21,0.302-0.402c0-0.236-0.191-0.427-0.427-0.427
		c-0.236,0-0.427,0.191-0.427,0.427c0,0.186,0.121,0.34,0.287,0.398l-2.32,1.842l-0.208-0.006v0.561h0.295v1.373h-2.491v0.039v0.441
		v2.432v0.47v0.009h1.172v4.149l-6.479,4.824l-0.001,0v9.493h-1.727v3.355c-8.359,0.381-14.478,0.705-14.622,0.713l-0.028,0.002
		c-0.979,0.081-1.48,0.565-1.727,0.957c-0.012,0.018-0.017,0.038-0.028,0.056c-0.559,0.958-0.168,2.109-0.083,2.334l0.252,0.653
		h4.032c2.959-0.963,6.17-2.147,7.94-2.813c0.508-0.191,1.019,0.232,0.957,0.771c-0.165,1.441,1.019,1.904,2.028,2.042
		c0.713,0.097,1.995,0.02,2.335,0c4.244-0.255,9.809-2.001,12.328-2.859c0.505-0.172,1.005,0.25,0.936,0.778
		c-0.191,1.473,1.005,1.942,2.024,2.081c0.712,0.097,2.38,0.021,2.911,0c1.983-0.08,4.199-0.294,6.242-0.539
		c0.783-1.708,1.519-3.443,2.173-5.218C168.233,71.375,165.802,71.45,163.341,71.533z M151.106,50.055h-0.664v-2.432h0.664V50.055z
		 M152.425,50.055h-0.663v-2.432h0.663V50.055z M157.851,50.055h-0.68v-2.432h0.68V50.055z M158.508,47.624h0.664v2.432h-0.664
		V47.624z"/>
</g>
</svg>
